<?xml version="1.0" encoding="UTF-8" standalone="no"?>
<svg width="65px" height="65px" viewBox="0 0 65 65" version="1.1" xmlns="http://www.w3.org/2000/svg" xmlns:xlink="http://www.w3.org/1999/xlink">
    <!-- Generator: Sketch 50.2 (55047) - http://www.bohemiancoding.com/sketch -->
    <title>873351</title>
    <desc>Created with Sketch.</desc>
    <defs></defs>
    <g id="Symbols" stroke="none" stroke-width="1" fill="none" fill-rule="evenodd">
        <g id="Logo" fill-rule="nonzero">
            <g id="873351">
                <path d="M32.5,0 C25.1303711,0 18.3338086,2.45286133 12.8820605,6.58670898 C5.05527344,12.5213867 0,21.9203613 0,32.5 C0,50.4492676 14.5507324,65 32.5,65 C50.4492676,65 65,50.4492676 65,32.5 C65,14.5507324 50.4492676,0 32.5,0 Z M32.5,37.7313574 C29.6153711,37.7313574 27.2686426,35.384502 27.2686426,32.5 C27.2686426,30.8460547 28.0348047,29.3167773 29.3706055,28.3041992 C30.2634668,27.6269043 31.3458691,27.2686426 32.5,27.2686426 C35.3846289,27.2686426 37.7313574,29.615498 37.7313574,32.5 C37.7313574,35.384502 35.3846289,37.7313574 32.5,37.7313574 Z" id="Shape" fill="#46525E"></path>
                <path d="M53.3104102,7.53758789 C52.2553027,8.69222656 52.2829785,10.4826465 53.400166,11.599834 C58.9828027,17.1823438 62.0573535,24.6047852 62.0573535,32.499873 C62.0573535,40.3949609 58.9829297,47.8174023 53.400166,53.4000391 C47.8174023,58.9826758 40.3950879,62.0573535 32.5,62.0573535 C24.6049121,62.0573535 17.1824707,58.9829297 11.599834,53.400166 C10.4825195,52.2829785 8.69235352,52.2553027 7.53758789,53.3104102 C13.4991797,60.4538086 22.4681641,65 32.5,65 C50.4492676,65 65,50.4492676 65,32.5 C65,22.4681641 60.4538086,13.4991797 53.3104102,7.53758789 Z" id="Shape" fill="#3E4954"></path>
                <g id="Group" transform="translate(2.919922, 2.919922)" fill="#6C7A88">
                    <path d="M14.1108398,9.1384668 C4.37988281,16.5150781 1.56038086,29.1505957 5.96425781,39.549834 C14.9082324,60.6555371 44.4666016,60.1486133 53.1958984,39.549834 C62.7280469,17.0448535 38.4085254,-4.21014648 17.5398437,6.93862305 C17.062627,7.19367188 16.8820996,7.78870117 17.1370215,8.26604492 C17.3918164,8.74237305 17.9817676,8.92582031 18.4644434,8.66886719 C34.198252,0.264824219 53.2521387,11.8104492 53.2521387,29.5800781 C53.2521387,42.6419043 42.6411426,53.2521387 29.5800781,53.2521387 C23.2683496,53.2521387 17.3268164,50.7868359 12.8500684,46.3100879 C2.78166992,36.2418164 3.69916016,19.4979688 15.2956934,10.7013867 C15.7254297,10.3763867 15.8141699,9.76345703 15.4838379,9.32686523 C15.1505859,8.88836914 14.535625,8.81422852 14.1108398,9.1384668 Z" id="Shape"></path>
                    <path d="M17.6669238,13.8283691 C30.7282422,3.92805664 49.3285254,13.4335449 49.3285254,29.5800781 C49.3285254,40.4768457 40.475957,49.3285254 29.5800781,49.3285254 C18.6830566,49.3285254 9.83163086,40.475957 9.83163086,29.5800781 C9.83290039,24.6600098 11.6365234,19.9621094 14.9100098,16.3499121 C15.4785059,15.7197168 15.0316309,14.7099316 14.1826953,14.7099316 C13.9068262,14.7099316 13.6412402,14.8276172 13.4555078,15.0316309 C6.72305664,22.4572461 6.0409375,33.5177832 11.5826953,41.7104492 C23.7800977,59.7586133 51.2902051,50.5534961 51.2902051,29.5800781 C51.2902051,11.6328418 30.6864746,1.49157227 16.4805469,12.2641797 C16.0539844,12.588291 15.9597852,13.2009668 16.2922754,13.6387012 C16.6200684,14.0717383 17.2314746,14.1547656 17.6669238,13.8283691 Z" id="Shape"></path>
                    <path d="M19.6418066,44.3247949 C31.4829785,52.3375684 47.3593555,43.7183398 47.3668457,29.5800781 C47.3599902,16.8529004 34.2096777,8.08869141 22.4209375,13.2869141 C21.2529687,13.8038672 22.0050391,15.6106641 23.2122363,15.0825391 C33.6991992,10.4637305 45.4050391,18.2462109 45.4050391,29.5800781 C45.4050391,38.2980762 38.3261328,45.4050391 29.5800781,45.4050391 C25.360918,45.4050391 21.3890625,43.7571875 18.3952539,40.7647754 C11.6671191,34.0337207 12.2860156,22.839375 20.0367578,16.954082 C20.4727148,16.6248926 20.550791,16.0109473 20.2262988,15.5795605 C19.8894922,15.136748 19.2719922,15.0706055 18.8517773,15.3912891 C9.09758789,22.7761523 9.53887695,37.4912891 19.6418066,44.3247949 Z" id="Shape"></path>
                    <path d="M11.9267383,5.86231445 C11.4957324,6.18566406 11.4017871,6.79770508 11.7291992,7.23429688 C12.0621973,7.68155273 12.683125,7.74833008 13.1011816,7.43310547 C30.9959863,-5.93886719 57.1770215,6.68674805 57.1770215,29.6010254 C57.178418,44.7325684 44.8387012,57.178291 29.5592578,57.178291 C14.7689648,57.178291 1.97805664,45.2036914 1.97805664,29.5042871 C1.97932617,22.1058398 4.91029297,15.1453809 10.2305176,9.9022168 C10.6210254,9.51704102 10.6149316,8.89522461 10.2409277,8.51588867 C9.85714844,8.12677734 9.23685547,8.12703125 8.85459961,8.50408203 C8.85459961,8.50408203 8.85320313,8.50408203 8.85320313,8.50535156 C7.99474609,9.29042969 6.33407227,11.1727637 5.05146484,13.0671582 C-2.76491211,24.6264941 -1.37820313,40.2475684 8.49240234,50.2754688 C27.3832813,69.4776367 59.1388281,55.5037793 59.1388281,29.6010254 C59.1387012,5.0840918 31.1247168,-8.49265625 11.9267383,5.86231445 Z" id="Shape"></path>
                </g>
                <path d="M32.5,19.6176855 C29.664375,19.6176855 26.9791895,20.5172754 24.7349121,22.2189551 C21.4828809,24.6846387 19.6176855,28.432041 19.6176855,32.5 C19.6176855,39.6032812 25.3967187,45.3823145 32.5,45.3823145 C39.6032812,45.3823145 45.3823145,39.6032812 45.3823145,32.5 C45.3823145,25.3967187 39.6032812,19.6176855 32.5,19.6176855 Z M32.5,34.4618066 C31.4182324,34.4618066 30.5381934,33.5817676 30.5381934,32.5 C30.5381934,31.879834 30.8254883,31.3063867 31.3264453,30.926543 C31.6612207,30.6725098 32.0672168,30.5381934 32.5,30.5381934 C33.5817676,30.5381934 34.4618066,31.4182324 34.4618066,32.5 C34.4618066,33.5817676 33.5817676,34.4618066 32.5,34.4618066 Z" id="Shape" fill="#FF6473"></path>
                <path d="M41.6034277,23.3965723 C40.511377,24.488623 40.3214551,26.1725293 41.0967578,27.5082031 C43.3038379,31.311084 42.7811719,36.2755859 39.5285059,39.5283789 C36.2757129,42.7811719 31.3113379,43.3037109 27.5083301,41.0966309 C26.1726562,40.3213281 24.48875,40.511377 23.3966992,41.6034277 C25.8600977,44.0674609 29.3128418,45.5421484 33.1018848,45.3686035 C39.712207,45.0658203 45.0658203,39.712334 45.3686035,33.1018848 C45.5420215,29.3129687 44.067207,25.8602246 41.6034277,23.3965723 Z" id="Shape" fill="#EC4B62"></path>
            </g>
        </g>
    </g>
</svg>